<svg xmlns="http://www.w3.org/2000/svg" viewBox="0 0 40 40">
  <!-- Dark background -->
  <rect width="40" height="40" fill="#0a0a0a" rx="4"/>
  <!-- Chair -->
  <g fill="none" stroke="#ffffff" stroke-width="1.3" stroke-linecap="round" stroke-linejoin="round">
    <!-- Chair back -->
    <path d="M11 8.5 Q11.2 8 14 7.5 L25.5 5.8 Q28 5.5 28.2 6.2 L29 17.5 Q29.1 18.2 28.5 18.5 L15.5 21 Q14.8 21.2 14.5 20.5 L11.2 9 Q11 8.6 11 8.5" />
    <!-- Horizontal detail on backrest -->
    <path d="M13.5 12.5 Q19 11.2 27 10" />
    <!-- Small oval handle at top -->
    <path d="M17.5 6.2 Q20 5 23 5.5 Q20.5 6.8 17.5 6.2" />
    <!-- Seat -->
    <path d="M8 22.5 Q8.2 22 13 20.5 L28.5 18 Q30 17.8 31 19 L33 22 Q33.2 22.8 32 23.2 L12.5 26.5 Q10 27 9 25.5 L8 22.5" />
    <!-- Back left leg -->
    <path d="M9.5 25 Q7.5 30 5 36.5" />
    <!-- Back right leg -->
    <path d="M13 21.5 Q11 28.5 9.5 36" />
    <!-- Front left leg -->
    <path d="M31.5 22.5 Q33 29 35.5 36" />
    <!-- Front right leg -->
    <path d="M27 25.5 Q28.5 30.5 30 36.5" />
  </g>
</svg>